<svg width="80" height="80" viewBox="0 0 80 80" fill="none" xmlns="http://www.w3.org/2000/svg">
<circle cx="40" cy="40" r="40" fill="#E83F3F"/>
<path d="M49.5 38.06L53 34V30.5L56 34V50L47 58.5V67H40.5V48.5L49.5 38.06ZM49.5 38.06V46L43.5 53" stroke="white"/>
<path d="M30.129 37.6636L26.2903 33.5479V30L23 33.5479V49.7671L32.871 58.3836V67H40V48.2466L30.129 37.6636ZM30.129 37.6636V45.7123L36.7097 52.8082" stroke="white"/>
<path d="M40.0984 29.9577L34 26.2958M40.0984 29.9577L46 26.2958M40.0984 29.9577V36M34 26.2958L40.0984 23L46 26.2958M34 26.2958V31.9718L40.0984 36M46 26.2958V31.9718L40.0984 36" stroke="white"/>
</svg>
