<svg width="72" height="30" viewBox="0 0 72 30" fill="none" xmlns="http://www.w3.org/2000/svg">
<path d="M0.522727 30V0.90909H10.3523C12.6345 0.90909 14.5 1.32102 15.9489 2.14489C17.4072 2.95928 18.4867 4.0625 19.1875 5.45455C19.8883 6.84659 20.2386 8.39962 20.2386 10.1136C20.2386 11.8277 19.8883 13.3854 19.1875 14.7869C18.4962 16.1884 17.4261 17.3059 15.9773 18.1392C14.5284 18.9631 12.6723 19.375 10.4091 19.375H3.36364V16.25H10.2955C11.858 16.25 13.1127 15.9801 14.0597 15.4403C15.0066 14.9006 15.6932 14.1714 16.1193 13.2528C16.5549 12.3248 16.7727 11.2784 16.7727 10.1136C16.7727 8.94886 16.5549 7.9072 16.1193 6.98864C15.6932 6.07008 15.0019 5.35038 14.0455 4.82955C13.089 4.29924 11.8201 4.03409 10.2386 4.03409H4.04545V30H0.522727ZM25.9134 30V0.90909H36.0838C38.1103 0.90909 39.7817 1.25947 41.098 1.96023C42.4143 2.65151 43.3944 3.58428 44.0384 4.75852C44.6823 5.92329 45.0043 7.21591 45.0043 8.63636C45.0043 9.88636 44.7817 10.9186 44.3366 11.733C43.901 12.5473 43.3234 13.1913 42.6037 13.6648C41.8935 14.1383 41.1217 14.4886 40.2884 14.7159V15C41.1785 15.0568 42.0734 15.3693 42.973 15.9375C43.8726 16.5057 44.6255 17.3201 45.2315 18.3807C45.8376 19.4413 46.1406 20.7386 46.1406 22.2727C46.1406 23.7311 45.8092 25.0426 45.1463 26.2074C44.4834 27.3722 43.437 28.2955 42.0071 28.9773C40.5772 29.6591 38.7164 30 36.4247 30H25.9134ZM29.4361 26.875H36.4247C38.7259 26.875 40.3594 26.4299 41.3253 25.5398C42.3007 24.6402 42.7884 23.5511 42.7884 22.2727C42.7884 21.2879 42.5374 20.3788 42.0355 19.5455C41.5336 18.7027 40.8187 18.0303 39.8906 17.5284C38.9626 17.017 37.8641 16.7614 36.5952 16.7614H29.4361V26.875ZM29.4361 13.6932H35.9702C37.0308 13.6932 37.9872 13.4848 38.8395 13.0682C39.7012 12.6515 40.383 12.0644 40.8849 11.3068C41.3963 10.5492 41.652 9.65909 41.652 8.63636C41.652 7.35795 41.2069 6.27367 40.3168 5.38352C39.4266 4.4839 38.0156 4.03409 36.0838 4.03409H29.4361V13.6932ZM51.929 30V0.90909H61.7585C64.0407 0.90909 65.9063 1.32102 67.3551 2.14489C68.8134 2.95928 69.893 4.0625 70.5938 5.45455C71.2945 6.84659 71.6449 8.39962 71.6449 10.1136C71.6449 11.8277 71.2945 13.3854 70.5938 14.7869C69.9025 16.1884 68.8324 17.3059 67.3835 18.1392C65.9347 18.9631 64.0786 19.375 61.8153 19.375H54.7699V16.25H61.7017C63.2642 16.25 64.5189 15.9801 65.4659 15.4403C66.4129 14.9006 67.0994 14.1714 67.5256 13.2528C67.9612 12.3248 68.179 11.2784 68.179 10.1136C68.179 8.94886 67.9612 7.9072 67.5256 6.98864C67.0994 6.07008 66.4081 5.35038 65.4517 4.82955C64.4953 4.29924 63.2263 4.03409 61.6449 4.03409H55.4517V30H51.929Z" fill="white"/>
</svg>
