<svg width="80" height="80" viewBox="0 0 80 80" fill="none" xmlns="http://www.w3.org/2000/svg">
<circle cx="40" cy="40" r="40" fill="#66AADA"/>
<path d="M40.5 44L25 34M40.5 44L55.5 34M40.5 44V60.5M25 34L40.5 25L55.5 34M25 34V49.5L40.5 60.5M55.5 34V49.5L40.5 60.5" stroke="white"/>
<path d="M37.0811 47L40 44L24.9189 34L22 37L37.0811 47Z" fill="#66AADA" stroke="white"/>
<path d="M43.7568 47L41 44L55.2432 34L58 37L43.7568 47Z" fill="#66AADA" stroke="white"/>
<path d="M33 31.5L40 38.5H40.5L47.5 31.5H41.5V19H38V31.5H33Z" fill="#66AADA" stroke="white"/>
</svg>
