<svg width="80" height="80" viewBox="0 0 80 80" fill="none" xmlns="http://www.w3.org/2000/svg">
<circle cx="40" cy="40" r="40" fill="#FF9D29"/>
<path d="M26 42H20" stroke="white"/>
<path d="M24.0781 30.1958L19 27" stroke="white"/>
<path d="M55 42H61" stroke="white"/>
<path d="M56.9219 30.1958L62 27" stroke="white"/>
<path d="M41 18V24" stroke="white"/>
<path d="M35.3318 50.5C28.4984 42.8333 15.8318 27 40.8318 27C65.8318 27 52.1651 42.5 44.8318 50.5M35.3318 50.5V52.5M35.3318 50.5H40.0818M44.8318 50.5V52.5M44.8318 50.5H40.0818M35.3318 52.5C36.9984 53.6667 41.2318 55.3 44.8318 52.5M35.3318 52.5V55.5M44.8318 52.5V55.5M44.8318 55.5V58.5C41.2318 63.7 36.9984 60.6667 35.3318 58.5V55.5M44.8318 55.5C43.3318 56.5 39.3318 57.9 35.3318 55.5M40.0818 50.5V45.5H36.3318H43.3318" stroke="white"/>
</svg>
