<svg width="800" height="1022" viewBox="0 0 800 1022" fill="none" xmlns="http://www.w3.org/2000/svg">
<path d="M257.068 162.58C456.322 44.922 377.101 5.1692 312.583 0H779C779 0 711.81 35.9665 739 69C766.19 102.034 823.723 176.386 787.713 321.657C742.701 503.246 362.597 277.636 604.663 592.29C798.316 844.013 807.385 983.648 787.713 1022H645.174C645.174 1022 659.678 956.968 583.657 929.455C507.637 901.941 375.1 1050.01 353.094 863.923C325.587 631.309 97.0242 668.327 10.0004 576.782C-59.6186 503.546 257.068 509.249 257.068 422.207C257.068 335.164 57.8134 280.237 257.068 162.58Z" fill="#4FA4E1"/>
</svg>
